# xmcd
#
# Track frame offsets:
#	150
#	16239
#	38263
#	54893
#	66916
#	78903
#	94217
#	105047
#	123430
#	143511
#	157215
#	168227
#
# Disc length: 2419 seconds
#
# Revision: 1
# Processed by: cddbd v1.5.2PL0 Copyright (c) Steve Scherf et al.
# Submitted via: audiograbber 1.83.01
#
DISCID=8409710c
DTITLE=Anna Mae Mitchell and Rising Tide - Driving Thru a Ghost Town
DYEAR=2009
DGENRE=Bluegrass
TTITLE0=Lichen Covered Stone
TTITLE1=Driving Thru a Ghost Town
TTITLE2=The Moon
TTITLE3=Bury Me Beneath the Willow
TTITLE4=Waited Too Long
TTITLE5=Whispering Waters
TTITLE6=Lovely Molly
TTITLE7=Upon the Mound
TTITLE8=Home
TTITLE9=What Does the Deep Sea Say?
TTITLE10=The Roving Gambler
TTITLE11=Oh Sinner Man
EXTD=
EXTT0=
EXTT1=
EXTT2=
EXTT3=
EXTT4=
EXTT5=
EXTT6=
EXTT7=
EXTT8=
EXTT9=
EXTT10=
EXTT11=
PLAYORDER=
